<mxfile host="e6dddd87-52a1-4448-a78a-b84f2e34b85c" modified="2020-07-18T09:07:06.538Z" agent="5.0 (Windows NT 10.0; Win64; x64) AppleWebKit/537.36 (KHTML, like Gecko) Code/1.47.2 Chrome/78.0.3904.130 Electron/7.3.2 Safari/537.36" etag="iIqJYz9-ngLXtv7Jsjfm" version="13.1.3" pages="2">
    <diagram id="6hGFLwfOUW9BJ-s0fimq" name="Desktop">
        <mxGraphModel dx="1334" dy="1131" grid="1" gridSize="10" guides="1" tooltips="1" connect="1" arrows="1" fold="1" page="1" pageScale="1" pageWidth="1920" pageHeight="1200" math="0" shadow="0">
            <root>
                <mxCell id="0"/>
                <mxCell id="1" parent="0"/>
                <mxCell id="2O4zhpwXtltxOIZguQ2c-1" value="" style="rounded=0;whiteSpace=wrap;html=1;" vertex="1" parent="1">
                    <mxGeometry width="1920" height="100" as="geometry"/>
                </mxCell>
                <mxCell id="2O4zhpwXtltxOIZguQ2c-28" style="edgeStyle=orthogonalEdgeStyle;rounded=0;orthogonalLoop=1;jettySize=auto;html=1;" edge="1" parent="1" source="2O4zhpwXtltxOIZguQ2c-3">
                    <mxGeometry relative="1" as="geometry">
                        <mxPoint x="1090" y="414.9999999999998" as="targetPoint"/>
                    </mxGeometry>
                </mxCell>
                <mxCell id="2O4zhpwXtltxOIZguQ2c-3" value="" style="aspect=fixed;html=1;points=[];align=center;image;fontSize=12;image=img/lib/mscae/Chart.svg;" vertex="1" parent="1">
                    <mxGeometry x="40" y="320" width="197.92" height="190" as="geometry"/>
                </mxCell>
                <mxCell id="2O4zhpwXtltxOIZguQ2c-7" value="&lt;span style=&quot;font-size: 35px&quot;&gt;App Name&lt;/span&gt;" style="text;html=1;strokeColor=none;fillColor=none;align=center;verticalAlign=middle;whiteSpace=wrap;rounded=0;" vertex="1" parent="1">
                    <mxGeometry x="40" y="40" width="40" height="20" as="geometry"/>
                </mxCell>
                <mxCell id="2O4zhpwXtltxOIZguQ2c-9" value="" style="endArrow=none;html=1;entryX=0.063;entryY=0;entryDx=0;entryDy=0;entryPerimeter=0;" edge="1" parent="1" target="2O4zhpwXtltxOIZguQ2c-1">
                    <mxGeometry width="50" height="50" relative="1" as="geometry">
                        <mxPoint x="120" y="90" as="sourcePoint"/>
                        <mxPoint x="180" y="40" as="targetPoint"/>
                    </mxGeometry>
                </mxCell>
                <mxCell id="2O4zhpwXtltxOIZguQ2c-12" value="&lt;font style=&quot;font-size: 25px&quot;&gt;Serach for a city&lt;/font&gt;" style="rounded=1;whiteSpace=wrap;html=1;" vertex="1" parent="1">
                    <mxGeometry x="150" y="20" width="370" height="60" as="geometry"/>
                </mxCell>
                <mxCell id="2O4zhpwXtltxOIZguQ2c-13" value="&lt;font style=&quot;font-size: 20px&quot;&gt;Search icon&lt;/font&gt;" style="text;html=1;strokeColor=none;fillColor=none;align=center;verticalAlign=middle;whiteSpace=wrap;rounded=0;" vertex="1" parent="1">
                    <mxGeometry x="550" y="40" width="40" height="20" as="geometry"/>
                </mxCell>
                <mxCell id="2O4zhpwXtltxOIZguQ2c-14" value="" style="endArrow=none;html=1;exitX=0.38;exitY=1;exitDx=0;exitDy=0;exitPerimeter=0;entryX=0.38;entryY=0;entryDx=0;entryDy=0;entryPerimeter=0;" edge="1" parent="1" source="2O4zhpwXtltxOIZguQ2c-1" target="2O4zhpwXtltxOIZguQ2c-1">
                    <mxGeometry width="50" height="50" relative="1" as="geometry">
                        <mxPoint x="680" y="70" as="sourcePoint"/>
                        <mxPoint x="730" y="20" as="targetPoint"/>
                    </mxGeometry>
                </mxCell>
                <mxCell id="2O4zhpwXtltxOIZguQ2c-15" value="&lt;font style=&quot;font-size: 26px&quot;&gt;Search results dropdown&lt;/font&gt;" style="text;html=1;strokeColor=none;fillColor=none;align=center;verticalAlign=middle;whiteSpace=wrap;rounded=0;" vertex="1" parent="1">
                    <mxGeometry x="790" y="40" width="40" height="20" as="geometry"/>
                </mxCell>
                <mxCell id="2O4zhpwXtltxOIZguQ2c-21" style="edgeStyle=orthogonalEdgeStyle;rounded=0;orthogonalLoop=1;jettySize=auto;html=1;exitX=0.5;exitY=1;exitDx=0;exitDy=0;entryX=0.25;entryY=0;entryDx=0;entryDy=0;" edge="1" parent="1" source="2O4zhpwXtltxOIZguQ2c-16" target="2O4zhpwXtltxOIZguQ2c-18">
                    <mxGeometry relative="1" as="geometry"/>
                </mxCell>
                <mxCell id="2O4zhpwXtltxOIZguQ2c-16" value="&lt;font style=&quot;font-size: 28px&quot;&gt;Selected city&lt;br&gt;&lt;/font&gt;" style="text;html=1;strokeColor=none;fillColor=none;align=center;verticalAlign=middle;whiteSpace=wrap;rounded=0;" vertex="1" parent="1">
                    <mxGeometry x="50" y="160" width="40" height="20" as="geometry"/>
                </mxCell>
                <mxCell id="2O4zhpwXtltxOIZguQ2c-18" value="&lt;font style=&quot;font-size: 24px&quot;&gt;Param 1&lt;/font&gt;" style="text;html=1;strokeColor=none;fillColor=none;align=center;verticalAlign=middle;whiteSpace=wrap;rounded=0;" vertex="1" parent="1">
                    <mxGeometry x="40" y="250" width="100" height="20" as="geometry"/>
                </mxCell>
                <mxCell id="2O4zhpwXtltxOIZguQ2c-23" value="" style="html=1;verticalLabelPosition=bottom;align=center;labelBackgroundColor=#ffffff;verticalAlign=top;strokeWidth=2;strokeColor=#0080F0;shadow=0;dashed=0;shape=mxgraph.ios7.icons.sun;pointerEvents=1" vertex="1" parent="1">
                    <mxGeometry x="150" y="150" width="30" height="30" as="geometry"/>
                </mxCell>
                <mxCell id="2O4zhpwXtltxOIZguQ2c-24" value="&lt;font style=&quot;font-size: 40px&quot;&gt;TEmp&lt;/font&gt;" style="text;html=1;strokeColor=none;fillColor=none;align=center;verticalAlign=middle;whiteSpace=wrap;rounded=0;" vertex="1" parent="1">
                    <mxGeometry x="239" y="160" width="40" height="20" as="geometry"/>
                </mxCell>
                <mxCell id="2O4zhpwXtltxOIZguQ2c-27" style="edgeStyle=orthogonalEdgeStyle;rounded=0;orthogonalLoop=1;jettySize=auto;html=1;" edge="1" parent="1" source="2O4zhpwXtltxOIZguQ2c-25">
                    <mxGeometry relative="1" as="geometry">
                        <mxPoint x="1090" y="759.5999999999999" as="targetPoint"/>
                    </mxGeometry>
                </mxCell>
                <mxCell id="2O4zhpwXtltxOIZguQ2c-25" value="" style="aspect=fixed;html=1;points=[];align=center;image;fontSize=12;image=img/lib/mscae/Chart.svg;" vertex="1" parent="1">
                    <mxGeometry x="40" y="630" width="270" height="259.2" as="geometry"/>
                </mxCell>
                <mxCell id="2O4zhpwXtltxOIZguQ2c-26" value="&lt;font style=&quot;font-size: 24px&quot;&gt;Param 1&lt;/font&gt;" style="text;html=1;strokeColor=none;fillColor=none;align=center;verticalAlign=middle;whiteSpace=wrap;rounded=0;" vertex="1" parent="1">
                    <mxGeometry x="40" y="560" width="100" height="20" as="geometry"/>
                </mxCell>
            </root>
        </mxGraphModel>
    </diagram>
    <diagram id="KVLczHhCkxBjJ-dVpYNQ" name="Mobile">
        <mxGraphModel dx="934" dy="792" grid="1" gridSize="10" guides="1" tooltips="1" connect="1" arrows="1" fold="1" page="1" pageScale="1" pageWidth="1920" pageHeight="1200" math="0" shadow="0">
            <root>
                <mxCell id="5dXjMu3AIjIntYh7A2Gs-0"/>
                <mxCell id="5dXjMu3AIjIntYh7A2Gs-1" parent="5dXjMu3AIjIntYh7A2Gs-0"/>
            </root>
        </mxGraphModel>
    </diagram>
</mxfile>